<mxfile host="Electron" modified="2024-04-13T01:12:21.011Z" agent="Mozilla/5.0 (Windows NT 10.0; Win64; x64) AppleWebKit/537.36 (KHTML, like Gecko) draw.io/24.1.0 Chrome/120.0.6099.109 Electron/28.1.0 Safari/537.36" etag="zmkO9ATqu6rpca-8-TRG" version="24.1.0" type="device">
  <diagram id="C5RBs43oDa-KdzZeNtuy" name="Page-1">
    <mxGraphModel dx="1098" dy="820" grid="1" gridSize="10" guides="1" tooltips="1" connect="1" arrows="1" fold="1" page="1" pageScale="1" pageWidth="827" pageHeight="1169" math="0" shadow="0">
      <root>
        <mxCell id="WIyWlLk6GJQsqaUBKTNV-0" />
        <mxCell id="WIyWlLk6GJQsqaUBKTNV-1" parent="WIyWlLk6GJQsqaUBKTNV-0" />
        <mxCell id="9tRQ071nQhZv1-RSwMeE-0" value="开发服务器" style="rounded=1;whiteSpace=wrap;html=1;" vertex="1" parent="WIyWlLk6GJQsqaUBKTNV-1">
          <mxGeometry x="160" y="340" width="120" height="60" as="geometry" />
        </mxCell>
        <mxCell id="9tRQ071nQhZv1-RSwMeE-1" value="测试服务器" style="rounded=1;whiteSpace=wrap;html=1;" vertex="1" parent="WIyWlLk6GJQsqaUBKTNV-1">
          <mxGeometry x="440" y="340" width="120" height="60" as="geometry" />
        </mxCell>
        <mxCell id="9tRQ071nQhZv1-RSwMeE-2" value="正式服务器" style="rounded=1;whiteSpace=wrap;html=1;" vertex="1" parent="WIyWlLk6GJQsqaUBKTNV-1">
          <mxGeometry x="780" y="340" width="120" height="60" as="geometry" />
        </mxCell>
        <mxCell id="9tRQ071nQhZv1-RSwMeE-6" value="开发&lt;div&gt;（后端）&lt;/div&gt;&lt;div&gt;1&lt;/div&gt;" style="ellipse;whiteSpace=wrap;html=1;aspect=fixed;" vertex="1" parent="WIyWlLk6GJQsqaUBKTNV-1">
          <mxGeometry x="60" y="450" width="60" height="60" as="geometry" />
        </mxCell>
        <mxCell id="9tRQ071nQhZv1-RSwMeE-7" value="开发&lt;div&gt;（后端）&lt;/div&gt;&lt;div&gt;2&lt;/div&gt;" style="ellipse;whiteSpace=wrap;html=1;aspect=fixed;" vertex="1" parent="WIyWlLk6GJQsqaUBKTNV-1">
          <mxGeometry x="140" y="540" width="60" height="60" as="geometry" />
        </mxCell>
        <mxCell id="9tRQ071nQhZv1-RSwMeE-8" value="开发&lt;div&gt;（后端）&lt;/div&gt;&lt;div&gt;3&lt;/div&gt;" style="ellipse;whiteSpace=wrap;html=1;aspect=fixed;" vertex="1" parent="WIyWlLk6GJQsqaUBKTNV-1">
          <mxGeometry x="220" y="540" width="60" height="60" as="geometry" />
        </mxCell>
        <mxCell id="9tRQ071nQhZv1-RSwMeE-9" value="" style="endArrow=classic;html=1;rounded=0;entryX=0.175;entryY=1;entryDx=0;entryDy=0;entryPerimeter=0;exitX=1;exitY=0;exitDx=0;exitDy=0;" edge="1" parent="WIyWlLk6GJQsqaUBKTNV-1" source="9tRQ071nQhZv1-RSwMeE-6" target="9tRQ071nQhZv1-RSwMeE-0">
          <mxGeometry width="50" height="50" relative="1" as="geometry">
            <mxPoint x="180" y="490" as="sourcePoint" />
            <mxPoint x="230" y="440" as="targetPoint" />
          </mxGeometry>
        </mxCell>
        <mxCell id="9tRQ071nQhZv1-RSwMeE-12" value="提交代码&lt;div&gt;部署&lt;/div&gt;" style="edgeLabel;html=1;align=center;verticalAlign=middle;resizable=0;points=[];" vertex="1" connectable="0" parent="9tRQ071nQhZv1-RSwMeE-9">
          <mxGeometry x="-0.189" y="2" relative="1" as="geometry">
            <mxPoint as="offset" />
          </mxGeometry>
        </mxCell>
        <mxCell id="9tRQ071nQhZv1-RSwMeE-10" value="" style="endArrow=classic;html=1;rounded=0;entryX=0.25;entryY=1;entryDx=0;entryDy=0;exitX=0.5;exitY=0;exitDx=0;exitDy=0;" edge="1" parent="WIyWlLk6GJQsqaUBKTNV-1" source="9tRQ071nQhZv1-RSwMeE-7" target="9tRQ071nQhZv1-RSwMeE-0">
          <mxGeometry width="50" height="50" relative="1" as="geometry">
            <mxPoint x="230" y="500" as="sourcePoint" />
            <mxPoint x="280" y="450" as="targetPoint" />
          </mxGeometry>
        </mxCell>
        <mxCell id="9tRQ071nQhZv1-RSwMeE-14" value="提交代码&lt;div&gt;部署&lt;/div&gt;" style="edgeLabel;html=1;align=center;verticalAlign=middle;resizable=0;points=[];" vertex="1" connectable="0" parent="9tRQ071nQhZv1-RSwMeE-10">
          <mxGeometry x="-0.03" y="1" relative="1" as="geometry">
            <mxPoint as="offset" />
          </mxGeometry>
        </mxCell>
        <mxCell id="9tRQ071nQhZv1-RSwMeE-11" value="" style="endArrow=classic;html=1;rounded=0;entryX=0.5;entryY=1;entryDx=0;entryDy=0;exitX=0.5;exitY=0;exitDx=0;exitDy=0;" edge="1" parent="WIyWlLk6GJQsqaUBKTNV-1" source="9tRQ071nQhZv1-RSwMeE-8" target="9tRQ071nQhZv1-RSwMeE-0">
          <mxGeometry width="50" height="50" relative="1" as="geometry">
            <mxPoint x="330" y="540" as="sourcePoint" />
            <mxPoint x="380" y="490" as="targetPoint" />
          </mxGeometry>
        </mxCell>
        <mxCell id="9tRQ071nQhZv1-RSwMeE-15" value="提交代码&lt;div&gt;部署&lt;/div&gt;" style="edgeLabel;html=1;align=center;verticalAlign=middle;resizable=0;points=[];" vertex="1" connectable="0" parent="9tRQ071nQhZv1-RSwMeE-11">
          <mxGeometry x="-0.042" y="-4" relative="1" as="geometry">
            <mxPoint x="1" as="offset" />
          </mxGeometry>
        </mxCell>
        <mxCell id="9tRQ071nQhZv1-RSwMeE-13" value="开发&lt;div&gt;（前端）&lt;/div&gt;&lt;div&gt;20&lt;/div&gt;" style="ellipse;whiteSpace=wrap;html=1;aspect=fixed;" vertex="1" parent="WIyWlLk6GJQsqaUBKTNV-1">
          <mxGeometry x="100" y="210" width="50" height="50" as="geometry" />
        </mxCell>
        <mxCell id="9tRQ071nQhZv1-RSwMeE-17" value="" style="endArrow=classic;html=1;rounded=0;exitX=0.5;exitY=1;exitDx=0;exitDy=0;entryX=0;entryY=0;entryDx=0;entryDy=0;" edge="1" parent="WIyWlLk6GJQsqaUBKTNV-1" source="9tRQ071nQhZv1-RSwMeE-13" target="9tRQ071nQhZv1-RSwMeE-0">
          <mxGeometry width="50" height="50" relative="1" as="geometry">
            <mxPoint x="260" y="260" as="sourcePoint" />
            <mxPoint x="310" y="210" as="targetPoint" />
          </mxGeometry>
        </mxCell>
        <mxCell id="9tRQ071nQhZv1-RSwMeE-18" value="开发&lt;div&gt;调试&lt;/div&gt;" style="edgeLabel;html=1;align=center;verticalAlign=middle;resizable=0;points=[];" vertex="1" connectable="0" parent="9tRQ071nQhZv1-RSwMeE-17">
          <mxGeometry x="0.0767" relative="1" as="geometry">
            <mxPoint as="offset" />
          </mxGeometry>
        </mxCell>
        <mxCell id="9tRQ071nQhZv1-RSwMeE-19" value="开发&lt;div&gt;（前端）&lt;/div&gt;&lt;div&gt;21&lt;/div&gt;" style="ellipse;whiteSpace=wrap;html=1;aspect=fixed;" vertex="1" parent="WIyWlLk6GJQsqaUBKTNV-1">
          <mxGeometry x="170" y="210" width="50" height="50" as="geometry" />
        </mxCell>
        <mxCell id="9tRQ071nQhZv1-RSwMeE-20" value="" style="endArrow=classic;html=1;rounded=0;exitX=0.5;exitY=1;exitDx=0;exitDy=0;entryX=0.25;entryY=0;entryDx=0;entryDy=0;" edge="1" parent="WIyWlLk6GJQsqaUBKTNV-1" source="9tRQ071nQhZv1-RSwMeE-19" target="9tRQ071nQhZv1-RSwMeE-0">
          <mxGeometry width="50" height="50" relative="1" as="geometry">
            <mxPoint x="310" y="310" as="sourcePoint" />
            <mxPoint x="360" y="260" as="targetPoint" />
          </mxGeometry>
        </mxCell>
        <mxCell id="9tRQ071nQhZv1-RSwMeE-21" value="" style="endArrow=classic;html=1;rounded=0;exitX=1;exitY=0.75;exitDx=0;exitDy=0;entryX=0;entryY=0.75;entryDx=0;entryDy=0;" edge="1" parent="WIyWlLk6GJQsqaUBKTNV-1" source="9tRQ071nQhZv1-RSwMeE-0" target="9tRQ071nQhZv1-RSwMeE-1">
          <mxGeometry width="50" height="50" relative="1" as="geometry">
            <mxPoint x="380" y="490" as="sourcePoint" />
            <mxPoint x="430" y="440" as="targetPoint" />
          </mxGeometry>
        </mxCell>
        <mxCell id="9tRQ071nQhZv1-RSwMeE-22" value="提交&lt;div&gt;部署&lt;/div&gt;" style="edgeLabel;html=1;align=center;verticalAlign=middle;resizable=0;points=[];" vertex="1" connectable="0" parent="9tRQ071nQhZv1-RSwMeE-21">
          <mxGeometry y="2" relative="1" as="geometry">
            <mxPoint as="offset" />
          </mxGeometry>
        </mxCell>
        <mxCell id="9tRQ071nQhZv1-RSwMeE-23" value="测试&lt;div&gt;1&lt;/div&gt;" style="ellipse;whiteSpace=wrap;html=1;aspect=fixed;" vertex="1" parent="WIyWlLk6GJQsqaUBKTNV-1">
          <mxGeometry x="390" y="480" width="60" height="60" as="geometry" />
        </mxCell>
        <mxCell id="9tRQ071nQhZv1-RSwMeE-24" value="测试&lt;div&gt;3&lt;/div&gt;" style="ellipse;whiteSpace=wrap;html=1;aspect=fixed;" vertex="1" parent="WIyWlLk6GJQsqaUBKTNV-1">
          <mxGeometry x="460" y="530" width="60" height="60" as="geometry" />
        </mxCell>
        <mxCell id="9tRQ071nQhZv1-RSwMeE-25" value="测试&lt;div&gt;2&lt;/div&gt;" style="ellipse;whiteSpace=wrap;html=1;aspect=fixed;" vertex="1" parent="WIyWlLk6GJQsqaUBKTNV-1">
          <mxGeometry x="540" y="490" width="60" height="60" as="geometry" />
        </mxCell>
        <mxCell id="9tRQ071nQhZv1-RSwMeE-26" value="" style="endArrow=classic;html=1;rounded=0;entryX=0.25;entryY=1;entryDx=0;entryDy=0;exitX=1;exitY=0;exitDx=0;exitDy=0;" edge="1" parent="WIyWlLk6GJQsqaUBKTNV-1" source="9tRQ071nQhZv1-RSwMeE-23" target="9tRQ071nQhZv1-RSwMeE-1">
          <mxGeometry width="50" height="50" relative="1" as="geometry">
            <mxPoint x="480" y="500" as="sourcePoint" />
            <mxPoint x="530" y="450" as="targetPoint" />
          </mxGeometry>
        </mxCell>
        <mxCell id="9tRQ071nQhZv1-RSwMeE-31" value="测试" style="edgeLabel;html=1;align=center;verticalAlign=middle;resizable=0;points=[];" vertex="1" connectable="0" parent="9tRQ071nQhZv1-RSwMeE-26">
          <mxGeometry x="-0.1651" y="2" relative="1" as="geometry">
            <mxPoint as="offset" />
          </mxGeometry>
        </mxCell>
        <mxCell id="9tRQ071nQhZv1-RSwMeE-27" value="" style="endArrow=classic;html=1;rounded=0;entryX=0.5;entryY=1;entryDx=0;entryDy=0;exitX=0.5;exitY=0;exitDx=0;exitDy=0;" edge="1" parent="WIyWlLk6GJQsqaUBKTNV-1" source="9tRQ071nQhZv1-RSwMeE-24" target="9tRQ071nQhZv1-RSwMeE-1">
          <mxGeometry width="50" height="50" relative="1" as="geometry">
            <mxPoint x="510" y="490" as="sourcePoint" />
            <mxPoint x="560" y="440" as="targetPoint" />
          </mxGeometry>
        </mxCell>
        <mxCell id="9tRQ071nQhZv1-RSwMeE-32" value="测试" style="edgeLabel;html=1;align=center;verticalAlign=middle;resizable=0;points=[];" vertex="1" connectable="0" parent="9tRQ071nQhZv1-RSwMeE-27">
          <mxGeometry x="-0.06" y="-1" relative="1" as="geometry">
            <mxPoint as="offset" />
          </mxGeometry>
        </mxCell>
        <mxCell id="9tRQ071nQhZv1-RSwMeE-28" value="" style="endArrow=classic;html=1;rounded=0;entryX=0.75;entryY=1;entryDx=0;entryDy=0;exitX=0.5;exitY=0;exitDx=0;exitDy=0;" edge="1" parent="WIyWlLk6GJQsqaUBKTNV-1" source="9tRQ071nQhZv1-RSwMeE-25" target="9tRQ071nQhZv1-RSwMeE-1">
          <mxGeometry width="50" height="50" relative="1" as="geometry">
            <mxPoint x="610" y="490" as="sourcePoint" />
            <mxPoint x="660" y="440" as="targetPoint" />
          </mxGeometry>
        </mxCell>
        <mxCell id="9tRQ071nQhZv1-RSwMeE-33" value="测试" style="edgeLabel;html=1;align=center;verticalAlign=middle;resizable=0;points=[];" vertex="1" connectable="0" parent="9tRQ071nQhZv1-RSwMeE-28">
          <mxGeometry x="-0.3567" y="2" relative="1" as="geometry">
            <mxPoint as="offset" />
          </mxGeometry>
        </mxCell>
        <mxCell id="9tRQ071nQhZv1-RSwMeE-29" value="" style="endArrow=classic;html=1;rounded=0;entryX=0;entryY=0.5;entryDx=0;entryDy=0;exitX=1;exitY=0.5;exitDx=0;exitDy=0;" edge="1" parent="WIyWlLk6GJQsqaUBKTNV-1" source="9tRQ071nQhZv1-RSwMeE-1" target="9tRQ071nQhZv1-RSwMeE-2">
          <mxGeometry width="50" height="50" relative="1" as="geometry">
            <mxPoint x="720" y="500" as="sourcePoint" />
            <mxPoint x="770" y="450" as="targetPoint" />
          </mxGeometry>
        </mxCell>
        <mxCell id="9tRQ071nQhZv1-RSwMeE-30" value="提交&lt;div&gt;发布&lt;/div&gt;" style="edgeLabel;html=1;align=center;verticalAlign=middle;resizable=0;points=[];" vertex="1" connectable="0" parent="9tRQ071nQhZv1-RSwMeE-29">
          <mxGeometry x="-0.0273" y="1" relative="1" as="geometry">
            <mxPoint as="offset" />
          </mxGeometry>
        </mxCell>
        <mxCell id="9tRQ071nQhZv1-RSwMeE-34" value="本地服务器" style="rounded=1;whiteSpace=wrap;html=1;" vertex="1" parent="WIyWlLk6GJQsqaUBKTNV-1">
          <mxGeometry x="120" y="680" width="80" height="40" as="geometry" />
        </mxCell>
        <mxCell id="9tRQ071nQhZv1-RSwMeE-35" value="" style="endArrow=classic;startArrow=classic;html=1;rounded=0;entryX=0.5;entryY=1;entryDx=0;entryDy=0;exitX=0.5;exitY=0;exitDx=0;exitDy=0;" edge="1" parent="WIyWlLk6GJQsqaUBKTNV-1" source="9tRQ071nQhZv1-RSwMeE-34" target="9tRQ071nQhZv1-RSwMeE-7">
          <mxGeometry width="50" height="50" relative="1" as="geometry">
            <mxPoint x="80" y="660" as="sourcePoint" />
            <mxPoint x="130" y="610" as="targetPoint" />
          </mxGeometry>
        </mxCell>
        <mxCell id="9tRQ071nQhZv1-RSwMeE-36" value="&lt;div&gt;开发&lt;/div&gt;&lt;div&gt;调试&lt;/div&gt;" style="edgeLabel;html=1;align=center;verticalAlign=middle;resizable=0;points=[];" vertex="1" connectable="0" parent="9tRQ071nQhZv1-RSwMeE-35">
          <mxGeometry x="0.1692" y="2" relative="1" as="geometry">
            <mxPoint as="offset" />
          </mxGeometry>
        </mxCell>
        <mxCell id="9tRQ071nQhZv1-RSwMeE-37" value="本地服务器" style="rounded=1;whiteSpace=wrap;html=1;" vertex="1" parent="WIyWlLk6GJQsqaUBKTNV-1">
          <mxGeometry x="240" y="680" width="80" height="40" as="geometry" />
        </mxCell>
        <mxCell id="9tRQ071nQhZv1-RSwMeE-39" value="" style="endArrow=classic;startArrow=classic;html=1;rounded=0;entryX=0.5;entryY=1;entryDx=0;entryDy=0;exitX=0.5;exitY=0;exitDx=0;exitDy=0;" edge="1" parent="WIyWlLk6GJQsqaUBKTNV-1" source="9tRQ071nQhZv1-RSwMeE-37" target="9tRQ071nQhZv1-RSwMeE-8">
          <mxGeometry width="50" height="50" relative="1" as="geometry">
            <mxPoint x="380" y="680" as="sourcePoint" />
            <mxPoint x="390" y="600" as="targetPoint" />
          </mxGeometry>
        </mxCell>
        <mxCell id="9tRQ071nQhZv1-RSwMeE-40" value="&lt;div&gt;开发&lt;/div&gt;&lt;div&gt;调试&lt;/div&gt;" style="edgeLabel;html=1;align=center;verticalAlign=middle;resizable=0;points=[];" vertex="1" connectable="0" parent="9tRQ071nQhZv1-RSwMeE-39">
          <mxGeometry x="0.1692" y="2" relative="1" as="geometry">
            <mxPoint as="offset" />
          </mxGeometry>
        </mxCell>
        <mxCell id="9tRQ071nQhZv1-RSwMeE-41" value="本地服务器" style="rounded=1;whiteSpace=wrap;html=1;" vertex="1" parent="WIyWlLk6GJQsqaUBKTNV-1">
          <mxGeometry x="20" y="590" width="80" height="40" as="geometry" />
        </mxCell>
        <mxCell id="9tRQ071nQhZv1-RSwMeE-42" value="" style="endArrow=classic;startArrow=classic;html=1;rounded=0;entryX=0.5;entryY=1;entryDx=0;entryDy=0;exitX=0.5;exitY=0;exitDx=0;exitDy=0;" edge="1" parent="WIyWlLk6GJQsqaUBKTNV-1" source="9tRQ071nQhZv1-RSwMeE-41" target="9tRQ071nQhZv1-RSwMeE-6">
          <mxGeometry width="50" height="50" relative="1" as="geometry">
            <mxPoint x="60" y="580" as="sourcePoint" />
            <mxPoint x="68.78679656440363" y="510.0032034355964" as="targetPoint" />
          </mxGeometry>
        </mxCell>
        <mxCell id="9tRQ071nQhZv1-RSwMeE-43" value="&lt;div&gt;开发&lt;/div&gt;&lt;div&gt;调试&lt;/div&gt;" style="edgeLabel;html=1;align=center;verticalAlign=middle;resizable=0;points=[];" vertex="1" connectable="0" parent="9tRQ071nQhZv1-RSwMeE-42">
          <mxGeometry x="0.1692" y="2" relative="1" as="geometry">
            <mxPoint as="offset" />
          </mxGeometry>
        </mxCell>
        <mxCell id="9tRQ071nQhZv1-RSwMeE-47" value="" style="ellipse;whiteSpace=wrap;html=1;aspect=fixed;" vertex="1" parent="WIyWlLk6GJQsqaUBKTNV-1">
          <mxGeometry x="830" y="525" width="70" height="70" as="geometry" />
        </mxCell>
        <mxCell id="9tRQ071nQhZv1-RSwMeE-49" value="独立的开发服务器&amp;nbsp; &amp;nbsp;而不是让前端直接使用后端 IP 去连接后端的作用：解耦 前后端 对 后端代码的使用。前端依赖稳定的后端代码，而后端开发会使得后端代码频繁修改，后端服务器不可用。前端时长要等后端改好才能开始开发前端代码。" style="text;html=1;whiteSpace=wrap;overflow=hidden;rounded=0;" vertex="1" parent="WIyWlLk6GJQsqaUBKTNV-1">
          <mxGeometry x="80" y="20" width="180" height="120" as="geometry" />
        </mxCell>
        <mxCell id="9tRQ071nQhZv1-RSwMeE-50" value="Text" style="text;html=1;align=left;verticalAlign=top;whiteSpace=wrap;rounded=0;" vertex="1" parent="WIyWlLk6GJQsqaUBKTNV-1">
          <mxGeometry x="310" y="30" width="180" height="120" as="geometry" />
        </mxCell>
      </root>
    </mxGraphModel>
  </diagram>
</mxfile>
